<?xml version="1.0" encoding="UTF-8"?>
<svg id="NON_Poster_V2_Bild" data-name="NON_Poster_V2 Bild" xmlns="http://www.w3.org/2000/svg" viewBox="0 0 7140.06 4830.15">
  <defs>
    <style>
      .cls-1 {
        fill: #f9c300;
        fill-rule: evenodd;
      }
    </style>
  </defs>
  <path class="cls-1" d="M7112.61,134.2c-1.73.25-3.46.5-5.18.75-1.35,24.2-8.26,29.27-27.04,31.96-61.93,8.85-119.01,20.92-159.5,51.51-2.29,3.31-4.48,6.75-6.53,10.34-45.75,67.1-70.15,201.3-73.2,375.15l-18.3,1107.15c-3.05,210.45,0,338.55,6.1,506.3-10.85,5.76-21.1,11.2-30.85,16.35.06,1.65.12,3.3.18,4.97-194.13,103.13-206.27,106.17-221.43,106.17-12.13,0-21.23-6.07-27.3-15.17-97.07-154.7-151.67-242.67-342.77-530.83l-925.17-1389.27h-20.01l14.89,1304.53c3.05,195.2,21.35,326.35,64.05,387.35,42.7,61,134.2,82.35,228.75,94.55,24.4,3.05,27.45,9.15,27.45,39.65,0,27.94-5.13,35.4-24.74,36.46-2.3,17.24-10.05,21.17-29.53,21.17-115.27-6.07-230.53-9.1-354.9-9.1s-254.8,3.03-364,9.1c-24.27,0-27.3-6.07-27.3-33.37s2.66-35.51,20.36-38.8c1.72-15.57,7.33-19.72,23.71-22.06,68.26-9.75,136.49-25.37,181.39-63.95,2.88-3.73,5.59-7.63,8.11-11.7,48.53-66.73,72.8-197.17,75.83-385.23l15.17-1104.14c3.03-194.13-9.1-312.43-48.53-370.07-42.47-60.67-139.53-81.9-254.8-94.03-21.23-3.03-27.3-9.1-27.3-45.5,0-29.05,4.6-39.7,19.81-41.97,1.14-26.19,7.98-33.67,27.27-33.67,109.8,3.05,228.75,9.15,320.25,9.15s222.65,0,372.1-3.05c67.1,125.05,115.9,195.2,234.85,375.15l698.45,1040.05c92.99,140.81,153.58,230.71,220.07,342.26v-271.36l-6.07-906.97c0-175.93-30.33-306.37-72.8-373.1-36.4-63.7-133.47-81.9-215.37-91-27.3-3.03-36.4-6.07-36.4-42.47,0-39.43,6.07-45.5,27.3-45.5.39.02.79.05,1.19.07,1.36-28.47,8.32-33.25,27.18-33.25,97.6,6.1,234.85,12.2,353.8,12.2s268.4-6.1,350.75-12.2c21.35,0,27.45,6.1,27.45,42.7,0,33.55-6.1,39.65-27.45,42.7ZM3555.65,2344.85c-685.53,0-1173.9-491.4-1173.9-1155.7,0-104.8,12.05-205.18,35.01-299.95C2530.93,362.05,2976.63,0,3568.5,0c689.3,0,1183.4,475.8,1183.4,1155.95,0,289.71-91.28,546.17-250.09,744.46-208.52,275.25-543.92,444.44-946.16,444.44ZM3555.65,136.57c-321.43,0-570.34,217.53-684.27,574.16-38.54,131.79-59.28,281.42-59.28,445.21,0,643.55,301.95,1061.4,756.4,1061.4,228.62,0,419.41-105.77,552.58-291.64,121-181.18,189.87-432.91,189.87-733.54,0-643.07-309.4-1055.6-755.3-1055.6ZM2610.8,4226.86l366-988.2c75.11-201.35,118.4-323.16,149.61-416.75,22.56-69.04,39.04-124.24,59.17-190.92l1.06-.48c3.18-10.54,6.42-21.29,9.76-32.34l240.95-109.8c21.35,0,33.55,6.1,39.65,27.45,61,189.1,115.9,341.6,253.15,741.15l344.65,994.3c61,179.95,103.7,286.7,152.5,347.7,51.85,64.05,82.35,70.15,198.25,79.3,33.55,0,39.65,6.1,39.65,39.65,0,24.8-3.35,34.59-18.64,38.02-2.6,18.74-11.8,22.65-38.55,22.65-130.43-3.03-300.3-6.07-430.73-6.07-118.3,0-297.27,3.03-427.7,6.07-21.23,0-24.27-6.07-24.27-39.43,0-25.6,3.58-35.12,13.46-38.17,2.14-18.79,8.97-22.72,23.62-22.72,93.56-4.92,161.28-13.83,193.53-49.17,1.11-2.64,2.09-5.39,2.95-8.24,21.23-66.73,3.03-151.67-54.6-318.5l-127.4-357.93c-100.1-6.07-230.53-12.13-345.8-12.13-127.4,0-248.73,6.07-376.13,12.13l-115.27,318.5c-1.67,4.49-3.29,8.91-4.87,13.29-52.87,155.73-45.81,239.31-20.31,304.46,27.45,64.05,128.1,85.4,237.9,97.6,18.3,0,27.45,6.1,27.45,39.65,0,19.34-3.05,29.55-10.3,34.73-2.48,21.58-12.16,25.94-32.7,25.94-112.23-6.07-266.94-6.07-379.17-6.07-106.17,0-218.4,0-318.5,6.07-27.3,0-33.37-6.07-33.37-39.43,0-15.78,1.36-25.45,5.68-31.26,1.35-24.77,8.85-29.63,33.31-29.63,82.35-12.2,134.2-51.85,179.95-94.55,61-61,118.95-173.85,186.05-356.85ZM3242.15,3802.9c89.97,0,198.07,0,283.71-4.78l-174.34-505.88c-68.87-200.2-93.13-288.17-126.5-397.37-2.9,8.08-5.71,15.97-8.47,23.73-26.72,76.56-49.6,146.11-90.1,260.76-11.08,31.6-23.54,66.75-37.93,106.8l-184.64,510.64c100.6,6.08,222.48,6.08,338.27,6.08ZM2296.82,2652.21c-84.93,12.13-160.77,30.33-197.17,94.03-25.68,37.67-44.6,96.6-56.75,171.88-6.63,51.03-10.5,108.48-11.6,171.08l-18.3,1107.15c-3.05,210.45,0,338.55,6.1,506.3-1.71.91-3.37,1.79-5.05,2.68.22,6.16.44,12.37.67,18.64-194.13,103.13-206.27,106.17-221.43,106.17-12.13,0-21.23-6.07-27.3-15.17-97.07-154.7-151.67-242.67-342.77-530.83l-925.17-1389.27h-42.47l15.17,1328.6c1.53,98.05,6.94,179.84,17.38,244.61,10.09,52.45,24.03,92.17,42.57,118.66,42.7,61,134.2,82.35,228.75,94.55,23.24,2.91,27.11,8.59,27.42,35.48,1.92,5.69,2.38,13.75,2.38,25.39,0,30.33-6.07,36.4-30.33,36.4-115.27-6.07-230.53-9.1-354.9-9.1s-254.8,3.03-364,9.1c-21.67,0-26.4-4.85-27.17-25.32-5.7-4.51-6.75-13.25-6.75-29.25,0-30.5,3.05-36.6,24.4-39.65,85.4-12.2,170.8-33.55,210.45-97.6,48.8-67.1,73.2-198.25,76.25-387.35l15.25-1110.2c1.56-100.08-.88-180.11-8.98-242.16-7.81-42.69-19.13-74.98-34.72-97.77-42.47-60.67-139.53-81.9-254.8-94.03-20.46-2.92-26.83-8.67-27.27-41.65-4.92-6.32-6.68-17.17-6.68-36.8,0-33.55,6.1-42.7,27.45-42.7,109.8,3.05,228.75,9.15,320.25,9.15s222.65,0,372.1-3.05c67.1,125.05,115.9,195.2,234.85,375.15l698.45,1040.05c105.06,159.09,168.76,253.19,246.35,386.97v-316.06l-6.07-906.97c0-175.93-30.33-306.37-72.8-373.1-36.4-63.7-133.47-81.9-215.37-91-27.3-3.03-36.4-6.07-36.4-42.47,0-12.18.58-21.17,2.01-27.79-.05-1.64-.07-3.33-.07-5.13,0-39.65,6.1-45.75,27.45-45.75,97.6,6.1,234.85,12.2,353.8,12.2s268.4-6.1,350.75-12.2c21.35,0,27.45,6.1,27.45,42.7,0,17.25-1.62,27.23-6.09,33.28-.04,33.06-6.14,39.1-27.3,42.13ZM2296.82,166.91c-84.93,12.13-160.77,30.33-197.17,94.03-25.68,37.67-44.6,96.6-56.75,171.88-6.63,51.03-10.5,108.48-11.6,171.08l-18.3,1107.15c-3.05,210.45,0,338.55,6.1,506.3-1.71.91-3.37,1.79-5.05,2.68.22,6.16.44,12.37.67,18.64-194.13,103.13-206.27,106.17-221.43,106.17-12.13,0-21.23-6.07-27.3-15.17-97.07-154.7-151.67-242.67-342.77-530.83L498.05,409.58h-42.47l15.17,1328.6c1.53,98.05,6.94,179.84,17.38,244.61,10.09,52.45,24.03,92.17,42.57,118.66,42.7,61,134.2,82.35,228.75,94.55,23.24,2.91,27.11,8.59,27.42,35.48,1.92,5.69,2.38,13.75,2.38,25.39,0,30.33-6.07,36.4-30.33,36.4-115.27-6.07-230.53-9.1-354.9-9.1s-254.8,3.03-364,9.1c-21.67,0-26.4-4.85-27.17-25.32-5.7-4.51-6.75-13.25-6.75-29.26,0-30.5,3.05-36.6,24.4-39.65,85.4-12.2,170.8-33.55,210.45-97.6,48.8-67.1,73.2-198.25,76.25-387.35l15.25-1110.2c1.56-100.08-.88-180.11-8.98-242.16-7.81-42.7-19.13-74.98-34.72-97.77-42.47-60.67-139.53-81.9-254.8-94.03-20.46-2.92-26.83-8.67-27.27-41.65C1.76,121.98,0,111.13,0,91.5c0-33.55,6.1-42.7,27.45-42.7,109.8,3.05,228.75,9.15,320.25,9.15s222.65,0,372.1-3.05c67.1,125.05,115.9,195.2,234.85,375.15l698.45,1040.05c105.06,159.09,168.76,253.19,246.35,386.97v-316.07l-6.07-906.97c0-175.93-30.33-306.37-72.8-373.1-36.4-63.7-133.47-81.9-215.37-91-27.3-3.03-36.4-6.07-36.4-42.47,0-12.18.58-21.17,2.01-27.79-.05-1.64-.07-3.33-.07-5.13,0-39.65,6.1-45.75,27.45-45.75,97.6,6.1,234.85,12.2,353.8,12.2s268.4-6.1,350.75-12.2c21.35,0,27.45,6.1,27.45,42.7,0,17.25-1.62,27.23-6.09,33.28-.04,33.06-6.14,39.1-27.3,42.13ZM4926.71,3752.86c-8.28.45-14.33,1.51-18.13,3.19-5.71,2.69-8.56,7.33-8.56,13.93,0,.9.05,1.82.17,2.77.11.95.22,1.87.34,2.77l22.07,149.46h2.02l69.25-119.58c3.49-5.95,6.81-12.07,9.96-18.36,5.26-10.61,7.89-17.98,7.89-22.11s-1.62-6.92-4.87-8.38c-3.25-1.45-8.79-2.68-16.62-3.69v-5.54h63.73v5.54c-4.93,1.01-8.59,2.24-10.99,3.69-2.41,1.46-5.12,4.7-8.14,9.74l-128.15,211.65h-6.71l-29.07-178.92c-3.47-21.15-6.46-33.85-8.98-38.1-2.52-4.25-8.53-6.94-18.04-8.06v-5.54h82.84v5.54ZM5026.44,3935.82l23.89-86.27c.34-1.34.61-2.57.84-3.69.22-1.12.34-2.24.34-3.36,0-4.03-1.48-6.52-4.44-7.47-2.96-.95-8.8-1.43-17.52-1.43v-5.54c9.22-1.12,15.85-1.99,19.9-2.6,4.05-.61,8.13-1.26,12.24-1.93,5.33-.89,10.38-1.9,15.16-3.02,4.77-1.12,7.47-1.48,8.08-1.09.61.39.86.87.75,1.43l-33.89,119.84c-1.57,6.38-2.35,10.18-2.35,11.41,0,1.68.33,3.13,1.01,4.36.56,1.34,1.96,2.01,4.2,2.01,3.8,0,8.84-3.3,15.11-9.9,3.69-3.92,8.22-9.51,13.6-16.78l4.36,3.69-1.68,2.35c-8.39,11.75-15.33,20.2-20.81,25.34-8.62,8.06-17.01,12.08-25.18,12.08-4.81,0-8.81-2.01-12-6.04-3.19-4.03-4.78-8.78-4.78-14.27,0-3.24.22-6.07.67-8.48.45-2.4,1.29-5.96,2.52-10.66ZM5080.83,3745.98c4.59,0,8.53,1.79,11.83,5.37,3.3,3.58,4.95,7.95,4.95,13.09s-1.65,9.48-4.95,13.01c-3.3,3.52-7.25,5.29-11.83,5.29s-8.51-1.79-11.75-5.37c-3.25-3.58-4.87-7.89-4.87-12.93s1.62-9.51,4.87-13.09c3.24-3.58,7.16-5.37,11.75-5.37ZM5117.45,3548.92c1.64,0,3.34-.64,5.09-1.93,1.75-1.28,3.94-3.27,6.57-5.96,1.2-1.23,3.39-3.86,6.57-7.89,1.97-2.46,4.98-6.21,9.03-11.25l4.78,3.19c-5.1,8.51-10.43,15.84-15.97,21.99-10.98,12.32-21.19,18.48-30.62,18.48-4.88,0-8.88-1.34-12-4.01-3.12-2.68-4.67-6.85-4.67-12.54,0-2.9.28-6.07.84-9.53.56-3.45,1.45-7.36,2.69-11.7,2.08-7.85,4.75-17.66,7.99-29.44l4.39-15.79-1.23.02c-15.61,26.13-27.88,44.61-36.81,55.45-15.49,18.6-30.14,27.89-43.94,27.89-3.73,0-7.13-.78-10.18-2.35-5.87-3.13-8.8-8.73-8.8-16.8,0-2.35.11-4.25.34-5.71.22-1.46.61-3.47,1.18-6.05l26.12-94.31c.22-1.12.42-2.15.59-3.1.17-.95.25-1.93.25-2.94,0-4.81-1.43-7.75-4.28-8.81-2.85-1.06-8.2-1.59-16.03-1.59v-4.7l24.97-4.87,27.01-5.04c.57-.11,1.07.16,1.52.82.45.66.62,1.32.51,1.98l-.5,2.77-32.63,113.41c-.78,2.8-1.34,4.99-1.68,6.55-.34,1.57-.5,2.69-.5,3.36,0,2.58.73,4.59,2.19,6.05,1.46,1.46,3.38,2.19,5.76,2.19,6.68,0,15.03-5.88,25.06-17.65,10.02-11.77,18.94-23.98,26.76-36.64,7.02-11.31,13.48-23.92,19.37-37.81,3.62-8.63,8.83-22.35,15.63-41.18h25.32l-33,119.15c-.55,2.24-1.04,4.31-1.48,6.21-.44,1.9-.66,3.47-.66,4.7,0,1.46.34,2.71,1.01,3.78.67,1.07,1.83,1.59,3.47,1.59ZM5269.19,3548.77c2.79,0,6-1.7,9.65-5.12,3.65-3.41,9.6-10.71,17.87-21.9l4.87,4.36c-9,12.42-16.13,21.15-21.4,26.18-9,8.84-17.61,13.26-25.84,13.26-3.73,0-7.33-1.26-10.79-3.78-3.47-2.52-5.2-7.07-5.2-13.68,0-1.9.14-3.92.42-6.04.28-2.12.64-3.97,1.09-5.54l21.42-81.57c1.12-4.47,1.87-8.14,2.27-10.99.39-2.85.59-4.89.59-6.13,0-2.69-.65-5.01-1.94-6.97-1.29-1.96-3.58-2.94-6.87-2.94-8.5,0-19.21,7.6-32.13,22.81-7.59,9.06-15.3,19.84-23.12,32.36-5.84,9.72-10.44,19.2-13.81,28.42-3.36,9.22-8.71,26.01-16.03,50.35h-25.77l28.73-103.73c2.46-8.77,3.89-14.09,4.28-15.95.39-1.86.59-3.85.59-5.99,0-3.26-.92-5.82-2.77-7.68-1.85-1.85-5.46-2.78-10.83-2.78-1.34,0-2.66.08-3.95.25-1.29.17-2.71.36-4.28.59v-5.54c7.22-1.12,12.36-1.96,15.42-2.52,3.06-.56,6.36-1.23,9.92-2.01l29.84-6.55c.67.45,1.11.95,1.33,1.51l-22.25,72.17c13.75-20.92,25.24-36.48,34.48-46.66,16.22-18.01,30.76-27.02,43.6-27.02,4.96,0,9.24.95,12.85,2.85,6.86,3.69,10.29,10.35,10.29,19.97,0,2.69-.28,5.48-.84,8.39-.56,2.91-1.29,6.04-2.18,9.4l-22.09,80.4c-.45,1.68-.95,3.72-1.51,6.13-.56,2.41-.84,4.11-.84,5.12,0,1.68.39,3.19,1.18,4.53.78,1.34,2.03,2.01,3.75,2.01ZM5121.07,3851.89c.39-1.86.59-3.85.59-5.99,0-3.26-.92-5.82-2.77-7.68-1.85-1.85-5.46-2.78-10.83-2.78-1.34,0-2.66.08-3.94.25-1.29.17-2.72.36-4.28.59v-5.54c7.22-1.12,12.36-1.96,15.42-2.52,3.06-.56,6.36-1.23,9.92-2.01l29.84-6.55c.67.45,1.11.95,1.33,1.51l-22.25,72.18c13.75-20.92,25.24-36.48,34.48-46.66,16.22-18.01,30.76-27.02,43.6-27.02,4.96,0,9.24.95,12.85,2.85,6.86,3.69,10.29,10.35,10.29,19.97,0,2.69-.28,5.48-.84,8.39-.56,2.91-1.29,6.04-2.18,9.4l-22.09,80.4c-.45,1.68-.95,3.72-1.51,6.13-.56,2.41-.84,4.11-.84,5.12,0,1.68.39,3.19,1.18,4.53.78,1.34,2.03,2.01,3.75,2.01,2.79,0,6.01-1.71,9.65-5.12,3.65-3.41,9.6-10.71,17.86-21.9l3.76,3.37c-.69-4-1.05-8.25-1.05-12.77,0-25.4,10.35-48.78,31.05-70.16,20.48-21.26,42.63-31.89,66.47-31.89,13.65,0,23.5,3.06,29.54,9.2,6.04,6.13,9.06,12.09,9.06,17.89,0,5.24-1.57,9.31-4.7,12.21-3.13,2.9-6.83,4.34-11.08,4.34s-7.61-1.28-10.41-3.86c-2.8-2.57-4.2-5.76-4.2-9.57,0-2.91.92-6.04,2.77-9.4,1.85-3.36,2.77-5.54,2.77-6.55,0-2.01-1.15-3.72-3.44-5.12-2.29-1.4-5.96-2.1-10.99-2.1-18.02,0-33.65,10.25-46.91,30.76-13.26,20.5-19.89,42.01-19.89,64.53,0,12.66,2.69,22.58,8.06,29.75,5.37,7.17,13.43,9.85,24.17,9.85,8.62,0,16.98-1.59,25.09-6.57,8.11-4.98,15.58-11.33,22.41-19.05l1.17-1.34,4.87,3.69c-7.83,9.96-15.39,17.62-22.66,23-12.87,9.29-27.14,13.93-42.8,13.93s-27.14-4.78-36.42-14.35c-6.33-6.51-10.49-14.65-12.51-24.41-8.65,11.88-15.54,20.27-20.66,25.17-9,8.84-17.61,13.26-25.84,13.26-3.73,0-7.33-1.26-10.79-3.78-3.47-2.52-5.2-7.08-5.2-13.68,0-1.9.14-3.92.42-6.04.28-2.12.64-3.97,1.09-5.54l21.42-81.57c1.12-4.47,1.87-8.14,2.27-10.99.39-2.85.59-4.89.59-6.13,0-2.69-.65-5.01-1.94-6.97-1.29-1.96-3.58-2.94-6.87-2.94-8.5,0-19.21,7.6-32.13,22.81-7.6,9.06-15.3,19.84-23.12,32.36-5.84,9.73-10.44,19.2-13.81,28.42-3.36,9.22-8.71,26.01-16.03,50.35h-25.77l28.73-103.73c2.46-8.77,3.89-14.09,4.28-15.95ZM5478.02,3820c8.73,0,15.67,2.01,20.81,6.03,5.15,4.02,7.72,9.99,7.72,17.92,0,16.09-9.43,29.85-28.28,41.3-18.86,11.45-38.69,18.46-59.5,21.02l-9.57,1.17c-1.45,4.59-2.46,8.25-3.02,10.99-.56,2.74-.84,6.18-.84,10.32,0,9.85,3.21,17.51,9.65,23,6.43,5.48,14.07,8.23,22.91,8.23s17.29-2.8,26.69-8.39c5.37-3.24,13.15-9.06,23.33-17.46l4.36,3.86c-5.03,6.38-12.25,12.92-21.65,19.64-16.67,11.98-33.4,17.96-50.19,17.96-11.86,0-22.27-4.19-31.22-12.57-8.95-8.38-13.43-20.4-13.43-36.05,0-24.81,11.19-48.85,33.57-72.09,22.16-23.25,45.04-34.88,68.65-34.88ZM5463.75,3877.37c13.43-11.89,20.14-23.69,20.14-35.42,0-4.24-1.01-7.62-3.02-10.13-2.02-2.51-4.98-3.77-8.9-3.77-7.28,0-14.41,3.1-21.4,9.29-6.99,6.2-13.29,13.2-18.88,21.02-5.93,9.16-10.63,17.92-14.1,26.29-1.9,4.47-3.92,9.55-6.04,15.24,21.37-3.13,38.77-10.63,52.2-22.52ZM5536.22,3851.89c.39-1.86.59-3.85.59-5.99,0-3.26-.92-5.82-2.77-7.68-1.85-1.85-5.46-2.78-10.83-2.78-1.34,0-2.66.08-3.94.25-1.29.17-2.72.36-4.28.59v-5.54c7.22-1.12,12.36-1.96,15.42-2.52,3.05-.56,6.36-1.23,9.92-2.01l29.84-6.55c.67.45,1.11.95,1.33,1.51l-22.25,72.18c13.75-20.92,25.24-36.48,34.48-46.66,16.22-18.01,30.76-27.02,43.6-27.02,4.96,0,9.24.95,12.85,2.85,6.86,3.69,10.29,10.35,10.29,19.97,0,2.69-.28,5.48-.84,8.39-.56,2.91-1.29,6.04-2.18,9.4l-22.09,80.4c-.45,1.68-.95,3.72-1.51,6.13-.56,2.41-.84,4.11-.84,5.12,0,1.68.39,3.19,1.18,4.53.78,1.34,2.03,2.01,3.75,2.01,2.79,0,6.01-1.71,9.65-5.12,3.65-3.41,9.6-10.71,17.86-21.9l4.87,4.36c-9,12.42-16.13,21.15-21.4,26.18-9,8.84-17.61,13.26-25.84,13.26-3.73,0-7.33-1.26-10.79-3.78-3.47-2.52-5.2-7.08-5.2-13.68,0-1.9.14-3.92.42-6.04.28-2.12.64-3.97,1.09-5.54l21.42-81.57c1.12-4.47,1.87-8.14,2.27-10.99.39-2.85.59-4.89.59-6.13,0-2.69-.65-5.01-1.94-6.97-1.29-1.96-3.58-2.94-6.87-2.94-8.5,0-19.21,7.6-32.13,22.81-7.6,9.06-15.3,19.84-23.12,32.36-5.84,9.73-10.44,19.2-13.81,28.42-3.36,9.22-8.71,26.01-16.03,50.35h-25.77l28.73-103.73c2.46-8.77,3.89-14.09,4.28-15.95ZM5661.9,3953.78l32.44-117.14h-25.51c0-3.02.22-4.93.67-5.71.45-.79,1.58-1.57,3.38-2.36,11.37-4.83,20.18-9.49,26.43-13.99,6.25-4.5,14.78-13.15,25.58-25.95l2.69-3.2c.33-.45.75-.81,1.26-1.09.5-.28,1.03-.42,1.59-.42,1.12.23,1.9.45,2.35.67.34.78.53,1.48.59,2.1.05.62.03,1.26-.08,1.93l-9.88,36.59h27.67l-2.01,11.44h-28.95l-30.93,112.78c-.56,2.01-.39,3.94.5,5.78.9,1.84,2.41,2.76,4.54,2.76,2.91,0,7-2.91,12.26-8.73,3.02-3.13,8.12-9.34,15.29-18.63l4.36,2.52-2.35,3.52c-9.64,14.44-18.13,24.48-25.47,30.13-7.34,5.65-14.32,8.48-20.93,8.48-5.72,0-9.86-1.51-12.44-4.53-2.58-3.02-3.87-6.43-3.87-10.24,0-.89.06-1.93.17-3.1.11-1.18.34-2.38.67-3.61ZM5381.85,3415.5h29.35c6.53-24.5,13.63-42.86,21.3-55.05,13.68-21.71,31.97-32.56,54.88-32.56,11.81,0,20.26,2.66,25.34,7.97,5.08,5.32,7.62,10.6,7.62,15.86,0,4.48-1.43,8-4.28,10.57-2.85,2.58-6.41,3.86-10.66,3.86-3.58,0-6.77-1.09-9.57-3.27-2.8-2.18-4.2-5.4-4.2-9.65,0-1.45.17-2.94.5-4.45.33-1.51.95-2.88,1.85-4.11l1.68-2.35.34-1.18c0-1.34-.65-2.63-1.94-3.86-1.29-1.12-3.46-1.68-6.5-1.68-11.8,0-21.14,6.07-28,18.21-6.87,12.14-13.07,32.7-18.6,61.68h44.96c7.15,0,14.17-.53,21.04-1.59,5.51-.85,8.44-1.36,8.89-1.53l1.42,1.11c0,.78-.03,1.46-.08,2.01-.06.56-.14,1.12-.25,1.68l-34.49,124.54c-.34,1.46-.5,2.46-.5,3.02,0,1.46.33,2.58,1.01,3.36.67.78,1.62,1.18,2.85,1.18,2.46,0,5.39-1.48,8.8-4.45,3.41-2.96,9.47-9.48,18.19-19.56l5.04,3.19c-4.35,7.72-11.03,15.75-20.05,24.09-9.02,8.34-17.21,12.5-24.56,12.5-6.91,0-11.77-2.68-14.56-8.05-1.57-3.02-2.35-6.43-2.35-10.23s.95-9.61,2.85-17.77c1.9-8.16,3.92-15.98,6.04-23.47l20.98-73.25.5-2.69c0-1.34-.32-2.15-.95-2.43-.63-.28-1.92-.42-3.87-.42h-44.87l-31.91,108.93c-7.16,29.99-16.45,53.8-27.88,71.42-11.43,17.62-25.8,26.44-43.12,26.44-8.08,0-14.89-1.9-20.44-5.71-5.54-3.81-8.31-8.79-8.31-14.94,0-3.25.95-6.44,2.85-9.57,1.9-3.13,5.32-4.7,10.24-4.7,4.03,0,7.25,1.26,9.65,3.78,2.41,2.52,3.61,5.46,3.61,8.81,0,2.01-1.01,5.48-3.02,10.41,0,1.45.67,2.54,2.01,3.27,1.35.73,3.03,1.09,5.04,1.09,9.53,0,17.65-7.78,24.37-23.33,3.47-8.28,6.55-18.91,9.25-31.89l35.19-127.06,3.73-16.95h-28.74l2.35-11.25ZM5515.84,3412.38l-.09-.07c.2,0,.2.03.09.07ZM5567.46,3343.41c-3.06-.84-9.14-1.2-18.24-1.09v-5.54c5.06-.67,10.88-1.45,17.47-2.35,6.58-.9,10.89-1.51,12.91-1.85,6.3-1.12,13.95-2.8,22.95-5.04.79,0,1.58.56,2.36,1.68l-55.88,201.75c-1.23,4.81-1.96,7.72-2.18,8.73-.23,1.01-.34,2.01-.34,3.02,0,2.13.39,3.94,1.17,5.45.78,1.51,2.24,2.27,4.36,2.27,4.03,0,9.29-3.58,15.78-10.74,6.49-7.16,11.98-14.1,16.45-20.81l4.53,3.19c-9.65,14.21-17.17,24.06-22.55,29.54-9.31,9.29-18.68,13.93-28.1,13.93-4.04,0-7.63-1.01-10.77-3.02-4.82-3.02-7.23-8.17-7.23-15.44,0-2.8.44-6.55,1.34-11.25.61-2.79,1.4-6.04,2.37-9.73l47.16-167.85c.45-1.45.73-2.91.84-4.36.11-1.45.17-2.63.17-3.52,0-3.8-1.53-6.13-4.58-6.97ZM5779.07,3427.92c-7.66,0-16.57,5.66-26.74,16.97-10.17,11.32-19.03,22.8-26.57,34.45-6.86,11.88-11.69,21.82-14.49,29.83-2.8,8.01-7.92,25.57-15.34,52.69h-26.11l33.61-119.49c.22-1.01.42-1.99.59-2.94.17-.95.25-1.93.25-2.94,0-2.69-.6-4.79-1.79-6.3-1.2-1.51-3.17-2.27-5.91-2.27-7.21,0-16.11,5.88-26.7,17.65-10.59,11.77-19.26,22.75-26.01,32.95-6.64,9.97-12.99,23.25-19.06,39.84-3.55,10.08-8.26,24.58-14.14,43.51h-25.77l32.35-119.34c.34-1.24.61-2.43.84-3.56.22-1.13.33-2.32.33-3.56,0-4.41-1.51-7.07-4.53-7.97-3.02-.9-8.84-1.19-17.46-.85v-5.54c11.25-1.79,29.46-5.48,54.64-11.08l1.34,1.16-19.04,68.72c12.61-18.19,24.54-33.39,35.8-45.59,15.45-16.2,29.09-24.29,40.91-24.29,4.54,0,8.58,1.23,12.1,3.68,5.4,3.69,8.1,9.77,8.1,18.25,0,3.79-.92,9.07-2.77,15.82-1.85,6.75-5.18,17.64-10,32.65,12.46-19,23.18-33.47,32.16-43.41,16.28-17.99,30.64-26.99,43.1-26.99,5.27,0,10.1,1.79,14.47,5.35,4.38,3.57,6.56,9.31,6.56,17.23,0,2.46-1.06,8.42-3.19,17.9l-26.41,91.6c-.45,1.45-.28,2.93.5,4.45.78,1.52,2.24,2.28,4.37,2.28,2.01,0,3.78-.5,5.29-1.51,1.51-1.01,3.44-2.69,5.79-5.05,2.24-2.24,4.06-4.2,5.46-5.89,1.4-1.68,5.4-6.56,12.01-14.63l5.2,4.03-1.68,2.35c-8.06,11.43-16.18,20.53-24.35,27.31-8.17,6.77-16.23,10.17-24.18,10.17-3.58,0-6.61-.9-9.07-2.69-3.81-2.91-5.71-7.78-5.71-14.61,0-1.68.14-3.47.42-5.37.28-1.9.7-4.03,1.26-6.38l26.07-94.13c.34-1.34.59-2.46.75-3.36.17-.9.25-1.79.25-2.69,0-2.69-.71-4.76-2.13-6.22-1.42-1.46-3.22-2.18-5.39-2.18ZM5947.56,3742.46c5.15,0,11.02.53,17.62,1.6,6.6,1.06,13.82,3.07,21.65,6.03,5.93,2.13,9.99,3.49,12.17,4.08,2.18.59,4.39.89,6.63.89,5.59,0,9.84-1.07,12.76-3.22,2.91-2.15,5.65-5.1,8.23-8.87l5.2,1.17-17.12,67.64-5.88-.84c-1.79-13.8-5.48-24.91-11.08-33.33-10.52-15.6-27.53-23.4-51.02-23.4-32.34,0-58.47,17.19-78.39,51.57-16.23,28.11-24.34,57.45-24.34,88.02,0,21.39,5.79,38.64,17.37,51.74,11.58,13.1,28.11,19.65,49.6,19.65,7.5,0,15.66-1.31,24.51-3.95,8.84-2.63,14.83-6.57,17.96-11.83,2.01-3.36,4.42-10.07,7.22-20.14,1.79-6.38,4.03-15.33,6.71-26.86l3.69-15.44c.22-.89.39-1.82.5-2.77.11-.95.17-1.93.17-2.94,0-5.03-1.54-8.25-4.62-9.65-3.08-1.4-10.44-2.82-22.07-4.28v-5.54h91.64v5.54c-11.64,1.12-19.5,3.13-23.58,6.04-4.09,2.91-7.36,9.12-9.82,18.63l-16.81,64.45c-8.84,5.82-20.25,10.85-34.23,15.11-13.99,4.25-29.15,6.38-45.48,6.38-32.78,0-58.34-9.84-76.69-29.54-16.11-17.34-24.17-38.77-24.17-64.29,0-33.57,12.7-64.79,38.1-93.66,28.31-32,62.83-48.01,103.56-48.01ZM6098.99,3336.28c4.59,0,8.53,1.79,11.83,5.37,3.3,3.58,4.95,7.95,4.95,13.09s-1.65,9.48-4.95,13.01c-3.3,3.52-7.25,5.29-11.83,5.29s-8.5-1.79-11.75-5.37c-3.25-3.58-4.87-7.89-4.87-12.93s1.62-9.51,4.87-13.09c3.24-3.58,7.16-5.37,11.75-5.37ZM6079.86,3413.82c5.33-.9,10.38-1.9,15.16-3.02,4.77-1.12,7.47-1.48,8.08-1.09.61.39.86.87.75,1.43l-33.89,119.84c-1.57,6.38-2.35,10.18-2.35,11.41,0,1.68.34,3.13,1.01,4.36.56,1.34,1.96,2.01,4.2,2.01,3.8,0,8.84-3.3,15.11-9.9,3.69-3.92,8.23-9.51,13.6-16.78l4.36,3.69-1.68,2.35c-8.39,11.75-15.33,20.2-20.81,25.34-8.62,8.06-17.01,12.09-25.18,12.09-4.81,0-8.81-2.01-12-6.04-3.19-4.03-4.78-8.78-4.78-14.27,0-3.24.22-6.07.67-8.48.45-2.41,1.29-5.96,2.52-10.66l23.9-86.27c.33-1.34.61-2.57.84-3.69.22-1.12.33-2.24.33-3.36,0-4.03-1.48-6.52-4.44-7.47-2.96-.95-8.8-1.43-17.52-1.43v-5.54c9.22-1.12,15.85-1.98,19.9-2.6,4.05-.61,8.13-1.26,12.24-1.93ZM6013.85,3340.81c-1.9,0-3.67.06-5.29.17-1.62.11-3.78.28-6.46.5v-5.54c12.7-1.68,30.3-4.59,52.79-8.73l1.52,1.68-.35,1.85-33.12,120.64-22.56,79.79c-.45,1.81-.81,3.47-1.09,5-.28,1.53-.42,2.91-.42,4.15,0,3.05.75,5.03,2.26,5.93,1.51.9,2.82,1.35,3.96,1.35,3.28,0,7.92-2.87,13.92-8.61,3.51-3.49,8.32-8.89,14.43-16.2l3.86,3.69-2.37,3.54c-4.17,6.18-9.52,12.46-16.05,18.86-11.6,11.34-22.02,17.01-31.25,17.01-3.04,0-5.8-.67-8.28-2.01-4.61-2.69-6.91-7.5-6.91-14.43,0-2.35.33-6.1,1.01-11.24.67-5.15,1.69-10.79,3.07-16.92-8.51,12.97-17.84,23.59-27.97,31.87-10.13,8.27-21.19,12.41-33.17,12.41-9.75,0-18.26-3.47-25.53-10.39-7.28-6.93-10.92-17.6-10.92-32.03,0-24.37,11.26-49.4,33.77-75.11,22.4-25.6,44.24-38.39,65.51-38.39,8.89,0,15.2,2.12,18.91,6.37,2.14,2.46,3.83,6.65,5.06,12.58l19.72-68.8c.56-1.9.92-3.61,1.09-5.12.17-1.51.25-2.82.25-3.94,0-4.36-.81-7.1-2.43-8.22-1.62-1.12-3.94-1.68-6.97-1.68ZM5993.63,3424.22c-2.25-4.47-6.82-6.71-13.69-6.71-17.13,0-33.69,13.75-49.68,41.24-14.31,24.59-21.46,45.93-21.46,64.03,0,6.82,1.57,12.77,4.7,17.85s8.46,7.63,15.96,7.63c16.01,0,31.41-12.85,46.2-38.55,14.23-24.14,21.35-46.99,21.35-68.56,0-6.82-1.13-12.46-3.38-16.93ZM6056.55,3854.91c.95-4.59,1.43-8.33,1.43-11.25,0-3.36-.84-5.93-2.52-7.72-1.68-1.79-4.59-2.69-8.73-2.69-1.34,0-3.02.11-5.04.34-2.01.22-4.42.5-7.22.84v-5.54l6.72-1.34c8.73-1.79,18.28-3.69,28.63-5.71s15.81-3.02,16.38-3.02c1.01,0,1.7.31,2.1.92.39.62.59,1.32.59,2.1-.1,1.14-.21,1.99-.31,2.56l-17.1,65.46,3.89-7.76c8.05-15.78,17.47-30.19,28.26-43.23,10.79-13.04,21.05-19.56,30.78-19.56,5.26,0,9.31,1.74,12.16,5.2,2.85,3.47,4.28,7.44,4.28,11.92,0,5.04-1.42,9.21-4.27,12.5-2.85,3.3-6.78,4.95-11.81,4.95-3.46,0-6.09-.67-7.87-2.01-1.79-1.34-3.18-2.91-4.19-4.7l-2.01-3.69c-.45-.67-.98-1.2-1.59-1.59-.61-.39-1.37-.59-2.27-.59-4.37,0-10.67,6.1-18.9,18.29-8.23,12.2-15.6,25.4-22.1,39.62-3.92,8.62-8.29,20.03-13.1,34.24-3.04,8.95-7.1,21.65-12.18,38.1h-25.77l27.98-101.04c1.57-5.82,2.82-11.02,3.78-15.61ZM6234.53,3819.33c8.94,0,15.83,2.3,20.7,6.89,2.6,2.47,4.64,5.71,6.11,9.74l.85,2.35,3.77-12.65c.46-1.44.85-2.41,1.2-2.91.34-.5,1.14-.81,2.4-.92l19.34-2.16c1.03,0,1.63.2,1.79.59.17.39.14,1.09-.08,2.1-.48,1.45-.84,2.6-1.08,3.44-.24.84-.6,2.04-1.08,3.61l-16.61,60.07c-3.61,13.09-6.68,24.38-9.21,33.89-4.14,17.17-6.21,26.98-6.21,29.43,0,1.56.42,2.71,1.26,3.43.84.72,1.87,1.09,3.1,1.09,1.01,0,2.12-.34,3.36-1.01,1.23-.67,2.73-1.68,4.5-3.02l3-2.35c.94-.78,2-1.71,3.18-2.77,1.18-1.06,2.59-2.38,4.24-3.94l10.96-10.74,4.03,3.52c-11.96,14.88-21.56,24.98-28.8,30.3-7.24,5.31-14.14,7.97-20.69,7.97-4.25,0-7.53-1.45-9.82-4.35-2.3-2.9-3.44-6.53-3.44-10.88,0-4.02.76-9.79,2.27-17.33,1.51-7.54,2.99-13.87,4.45-19.01-2.01,3.36-5.39,8.26-10.14,14.7-4.75,6.44-10.59,12.68-17.52,18.73-8.16,7.28-15.98,12.43-23.46,15.46-5.81,2.02-11.4,3.02-16.76,3.02-9.05,0-17.26-3.73-24.64-11.17-7.38-7.45-11.06-18.01-11.06-31.68,0-23.52,10.63-48.05,31.9-73.6,21.95-26.55,44.68-39.82,68.21-39.82ZM6169.73,3952.17c3.85,4.09,8.62,6.13,14.32,6.13,16.86,0,33.1-13.61,48.73-40.84,15.06-24.76,22.59-47.11,22.59-67.06,0-8.06-1.87-14-5.6-17.81-3.73-3.81-8.26-5.72-13.57-5.72-18.43,0-35.56,14.01-51.39,42.01-13.91,24.65-20.86,45.88-20.86,63.69,0,8.96,1.92,15.49,5.78,19.58ZM6242.36,4008.32c3.81,0,7.02,1.26,9.65,3.78,2.63,2.52,3.94,5.62,3.94,9.31,0,2.01-.59,4.05-1.76,6.13-1.18,2.07-1.76,3.5-1.76,4.28,0,1.01.65,1.85,1.93,2.52,1.29.67,2.94,1.01,4.96,1.01,9.53,0,17.6-7.5,24.21-22.49,3.47-7.83,6.67-18.63,9.58-32.4l39.88-144.01h-31.05l2.35-11.25h32.51c6.12-26.07,12.98-45.37,20.6-57.91,11.33-19.24,25.32-28.87,41.96-28.87,7.62,0,13.96,2.18,19.02,6.55,5.06,4.36,7.59,9.34,7.59,14.94,0,3.58-1.23,6.94-3.69,10.07-2.46,3.13-5.88,4.7-10.24,4.7-3.81,0-6.94-1.21-9.4-3.63-2.46-2.42-3.69-5.26-3.69-8.53,0-2.25,1.06-6.13,3.19-11.65,0-1.46-.73-2.76-2.18-3.88-1.27-1.01-2.81-1.52-4.6-1.52-8.4,0-15.43,9.03-21.08,27.08-3.17,10.43-6.73,27.98-10.67,52.65h37.43l-2.35,11.25h-38.19l-32.11,109.65c-6.78,28.99-15.89,52.43-27.32,70.31-11.43,17.88-26.06,26.82-43.87,26.82-8.16,0-14.85-2.18-20.08-6.55-5.23-4.37-7.84-9.23-7.84-14.6,0-3.36,1.09-6.49,3.27-9.4,2.18-2.91,5.46-4.36,9.82-4.36Z"/>
</svg>